<?xml version="1.0" encoding="UTF-8" standalone="no"?>
<svg
   xmlns:dc="http://purl.org/dc/elements/1.1/"
   xmlns:cc="http://creativecommons.org/ns#"
   xmlns:rdf="http://www.w3.org/1999/02/22-rdf-syntax-ns#"
   xmlns:svg="http://www.w3.org/2000/svg"
   xmlns="http://www.w3.org/2000/svg"
   xmlns:sodipodi="http://sodipodi.sourceforge.net/DTD/sodipodi-0.dtd"
   xmlns:inkscape="http://www.inkscape.org/namespaces/inkscape"
   width="66.440399mm"
   height="24.46619mm"
   viewBox="0 0 66.440399 24.46619"
   version="1.1"
   id="svg8"
   inkscape:version="1.0beta1 (fe3e306, 2019-09-17)"
   sodipodi:docname="logo_bid.svg">
  <defs
     id="defs2" />
  <sodipodi:namedview
     id="base"
     pagecolor="#ffffff"
     bordercolor="#666666"
     borderopacity="1.0"
     inkscape:pageopacity="0.0"
     inkscape:pageshadow="2"
     inkscape:zoom="2.8"
     inkscape:cx="115.87764"
     inkscape:cy="67.805643"
     inkscape:document-units="mm"
     inkscape:current-layer="layer1"
     inkscape:document-rotation="0"
     showgrid="false"
     fit-margin-top="0"
     fit-margin-left="0"
     fit-margin-right="0"
     fit-margin-bottom="0"
     inkscape:window-width="1920"
     inkscape:window-height="986"
     inkscape:window-x="-11"
     inkscape:window-y="-11"
     inkscape:window-maximized="1" />
  <metadata
     id="metadata5">
    <rdf:RDF>
      <cc:Work
         rdf:about="">
        <dc:format>image/svg+xml</dc:format>
        <dc:type
           rdf:resource="http://purl.org/dc/dcmitype/StillImage" />
        <dc:title />
      </cc:Work>
    </rdf:RDF>
  </metadata>
  <g
     inkscape:label="Capa 1"
     inkscape:groupmode="layer"
     id="layer1"
     transform="translate(-33.94401,-96.694341)">
    <path
       transform="matrix(0.26458333,0,0,0.26458333,33.94401,96.694341)"
       d="M 135.06445 14.345703 L 135.06445 45.306641 L 135.06445 76.267578 L 149.66016 76.197266 C 163.84432 76.128251 164.32063 76.110972 166.63281 75.625 C 173.51093 74.179406 178.92836 71.380952 183.32227 67.001953 C 187.49 62.848366 190.00724 58.303747 191.41406 52.394531 C 191.95423 50.125643 192.00378 49.541549 192.00586 45.296875 C 192.00907 40.126368 191.79217 38.673964 190.42578 34.728516 C 186.9665 24.739716 178.42148 17.506299 167.39453 15.232422 C 163.59749 14.449455 161.32542 14.345703 148.07031 14.345703 L 135.06445 14.345703 z M 150.04492 28.222656 L 155.82812 28.226562 C 160.65809 28.228981 161.94728 28.298139 163.6543 28.650391 C 169.73911 29.906025 174.33895 34.290332 175.91992 40.339844 C 176.43144 42.297072 176.60901 46.520666 176.26953 48.65625 C 175.9224 50.840174 174.83074 53.755887 173.75781 55.369141 C 173.29613 56.063289 172.19073 57.311498 171.30078 58.142578 C 168.67531 60.594471 165.64215 61.916378 161.60938 62.365234 L 161.60938 62.363281 C 160.51893 62.484604 157.47121 62.585106 154.83594 62.585938 L 150.04492 62.587891 L 150.04492 45.40625 L 150.04492 28.222656 z "
       style="fill:#ffffff;fill-opacity:1;stroke-width:0.220293"
       id="path872" />
    <path
       inkscape:connector-curvature="0"
       id="path870"
       d="m 64.084449,108.67463 v -8.19328 l 1.267727,0.0186 c 1.252968,0.0184 1.271587,0.0206 1.600102,0.18187 0.416174,0.20437 0.817683,0.64284 0.975924,1.06579 0.118443,0.31656 0.119704,0.39809 0.119704,7.72009 v 7.40018 H 66.06618 64.084449 Z"
       style="fill:#ffffff;fill-opacity:1;stroke-width:0.0582859" />
    <path
       transform="matrix(0.26458333,0,0,0.26458333,33.94401,96.694341)"
       d="M 196.24609 14.318359 L 196.24609 45.292969 L 196.24609 76.267578 L 213.81445 76.185547 C 230.60952 76.106404 231.47428 76.081974 233.48242 75.644531 C 242.72783 73.630534 247.70377 69.112385 248.9043 61.638672 C 249.23141 59.602414 249.07341 56.046962 248.57031 54.107422 C 248.38175 53.380468 247.86775 52.041524 247.42773 51.132812 C 246.34589 48.89847 243.80456 46.372528 241.15625 44.898438 L 239.25391 43.839844 L 241.29102 41.814453 C 244.55726 38.5644 245.68638 35.748308 245.68555 30.865234 C 245.68515 28.615886 245.59247 27.810568 245.17773 26.460938 C 244.35481 23.783029 243.24818 21.91505 241.39453 20.072266 C 238.79817 17.491113 235.83047 15.983568 231.36719 14.978516 C 229.22917 14.496815 228.80423 14.483982 212.71289 14.402344 L 196.24609 14.318359 z M 211.00586 27.783203 L 217.44922 27.785156 C 220.99319 27.787802 224.56264 27.88756 225.38086 28.005859 C 227.81409 28.357733 229.47152 29.346111 230.35156 30.970703 C 230.83805 31.869059 230.82471 34.472092 230.32812 35.414062 C 229.79696 36.421609 228.35905 37.56666 227.03125 38.039062 L 227.03125 38.041016 C 226.00924 38.404531 225.0146 38.460068 218.43945 38.527344 L 211.00586 38.603516 L 211.00586 33.193359 L 211.00586 27.783203 z M 211.00586 51.574219 L 219.32227 51.578125 C 228.48217 51.582358 229.89225 51.72535 231.70117 52.84375 C 233.14286 53.735076 233.92561 54.961679 234.06836 56.550781 C 234.35816 59.776986 232.55341 61.905014 228.96484 62.568359 C 228.17495 62.714249 224.4045 62.808594 219.33594 62.808594 L 211.00586 62.808594 L 211.00586 57.191406 L 211.00586 51.574219 z "
       style="fill:#ffffff;fill-opacity:1;stroke-width:0.220293"
       id="path864" />
    <path
       transform="matrix(0.26458333,0,0,0.26458333,33.94401,96.694341)"
       d="M 78.146484 0 L 72.548828 2.3457031 C 54.04597 10.100553 47.196452 13.701987 41.994141 18.412109 C 38.614056 21.472431 36.927577 25.18926 37.505859 28.298828 C 38.461139 33.435622 43.124851 37.302995 51.878906 40.212891 C 55.663933 41.471058 58.419383 42.174958 67.019531 44.087891 C 77.802013 46.486265 81.206135 47.479811 84.523438 49.197266 C 89.83213 51.9457 90.772952 55.797321 87.363281 60.826172 C 86.799765 61.65729 84.058198 65.034217 81.271484 68.330078 C 72.736699 78.424251 67.803653 84.739368 65.316406 88.753906 C 64.193728 90.565812 64.190812 90.575575 64.798828 90.429688 C 67.741667 89.723294 74.170205 86.778049 77.576172 84.576172 C 99.194869 70.600159 106.89589 42.955848 95.595703 19.894531 C 93.901073 16.43615 91.47126 12.654306 89.205078 9.9492188 C 86.607447 6.8485284 82.434872 3.0120726 79.158203 0.7109375 L 78.146484 0 z M 52.017578 26.083984 C 52.753815 26.096142 53.487227 26.174031 54.150391 26.330078 C 57.835147 27.197102 61.419693 30.059083 60.810547 31.646484 C 60.738604 31.833987 60.333988 32.132468 59.912109 32.308594 C 59.075488 32.6582 56.968704 32.690215 54.835938 32.386719 C 50.538611 31.775078 46.430138 29.129398 47.189453 27.462891 C 47.579106 26.608018 49.808867 26.047511 52.017578 26.083984 z M 64.861328 31.431641 C 67.802844 31.461915 70.979707 33.686637 69.650391 34.785156 C 69.251382 35.115109 67.938076 35.266533 67.171875 35.072266 C 65.456374 34.637166 63.233063 32.785945 63.359375 31.898438 C 63.422195 31.457556 63.548324 31.420302 64.861328 31.431641 z M 73.244141 36.828125 C 73.774764 36.822825 74.368212 36.914868 74.871094 37.125 C 75.667508 37.45775 76.535156 38.214471 76.535156 38.576172 C 76.535156 38.796896 74.51173 38.85688 73.890625 38.654297 C 72.85796 38.31773 71.920621 37.82209 71.820312 37.560547 C 71.649369 37.11513 72.359768 36.836959 73.244141 36.828125 z "
       style="fill:#ffffff;fill-opacity:1;stroke-width:0.220293"
       id="path856" />
    <path
       id="path847"
       d="m 46.121259,121.14523 c -4.18436,-0.43504 -7.77503,-2.58604 -10.01046,-5.99677 -1.06259,-1.62126 -1.762255,-3.48252 -2.059566,-5.47889 -0.141767,-0.95193 -0.143177,-2.71541 -0.0029,-3.66912 0.119882,-0.81525 0.417881,-2.01136 0.675968,-2.71321 0.242287,-0.65889 0.801787,-1.81368 1.18143,-2.43845 l 0.306873,-0.50501 0.04459,0.55372 c 0.169222,2.10147 1.296672,3.69905 3.604471,5.10749 0.855501,0.5221 2.495795,1.29014 4.277903,2.00304 3.074713,1.23 3.895073,1.74007 3.977711,2.47323 0.02639,0.23412 -0.0047,0.33607 -0.254385,0.83493 -0.277239,0.55385 -0.284444,0.58153 -0.284444,1.09282 0,0.48457 0.0149,0.55204 0.195298,0.88464 0.107413,0.19803 0.335497,0.52589 0.506853,0.72857 0.171356,0.20269 0.511923,0.60458 0.756816,0.8931 1.203406,1.41777 1.515187,2.64288 1.101693,4.32897 -0.107364,0.43779 -0.51039,1.5128 -0.622784,1.66116 -0.04241,0.056 -0.230627,0.12279 -0.45158,0.16028 -0.386948,0.0656 -2.522011,0.12332 -2.94345,0.0795 z"
       style="fill:#ffffff;stroke-width:0.0582859;fill-opacity:1" />
  </g>
</svg>
