<?xml version="1.0" encoding="UTF-8" standalone="no"?>
<svg
   xmlns:dc="http://purl.org/dc/elements/1.1/"
   xmlns:cc="http://creativecommons.org/ns#"
   xmlns:rdf="http://www.w3.org/1999/02/22-rdf-syntax-ns#"
   xmlns:svg="http://www.w3.org/2000/svg"
   xmlns="http://www.w3.org/2000/svg"
   xmlns:sodipodi="http://sodipodi.sourceforge.net/DTD/sodipodi-0.dtd"
   xmlns:inkscape="http://www.inkscape.org/namespaces/inkscape"
   sodipodi:docname="logo_bid.svg"
   inkscape:version="1.0beta1 (fe3e306, 2019-09-17)"
   id="svg8"
   version="1.1"
   viewBox="0 0 66.440399 24.46619"
   height="24.46619mm"
   width="66.440399mm">
  <defs
     id="defs2" />
  <sodipodi:namedview
     inkscape:window-maximized="1"
     inkscape:window-y="-11"
     inkscape:window-x="-11"
     inkscape:window-height="986"
     inkscape:window-width="1920"
     fit-margin-bottom="0"
     fit-margin-right="0"
     fit-margin-left="0"
     fit-margin-top="0"
     showgrid="false"
     inkscape:document-rotation="0"
     inkscape:current-layer="layer1"
     inkscape:document-units="mm"
     inkscape:cy="55.796652"
     inkscape:cx="151.81041"
     inkscape:zoom="2.8"
     inkscape:pageshadow="2"
     inkscape:pageopacity="0.0"
     borderopacity="1.0"
     bordercolor="#666666"
     pagecolor="#ffffff"
     id="base" />
  <metadata
     id="metadata5">
    <rdf:RDF>
      <cc:Work
         rdf:about="">
        <dc:format>image/svg+xml</dc:format>
        <dc:type
           rdf:resource="http://purl.org/dc/dcmitype/StillImage" />
        <dc:title></dc:title>
      </cc:Work>
    </rdf:RDF>
  </metadata>
  <g
     transform="translate(-33.94401,-96.694341)"
     id="layer1"
     inkscape:groupmode="layer"
     inkscape:label="Capa 1">
    <path
       sodipodi:nodetypes="csscsscsssscssccccccccsccccssscccssccscccssccccccccccccccsccccsccccscscccccccccscccccsccccccccccccsccccccsscccsccccccccccccccccc"
       inkscape:connector-curvature="0"
       id="path847"
       d="m 46.121259,121.14523 c -4.18436,-0.43504 -7.77503,-2.58604 -10.01046,-5.99677 -1.06259,-1.62126 -1.762255,-3.48252 -2.059566,-5.47889 -0.141767,-0.95193 -0.143177,-2.71541 -0.0029,-3.66912 0.119882,-0.81525 0.417881,-2.01136 0.675968,-2.71321 0.242287,-0.65889 0.801787,-1.81368 1.18143,-2.43845 l 0.306873,-0.50501 0.04459,0.55372 c 0.169222,2.10147 1.296672,3.69905 3.604471,5.10749 0.855501,0.5221 2.495795,1.29014 4.277903,2.00304 3.074713,1.23 3.895073,1.74007 3.977711,2.47323 0.02639,0.23412 -0.0047,0.33607 -0.254385,0.83493 -0.277239,0.55385 -0.284444,0.58153 -0.284444,1.09282 0,0.48457 0.0149,0.55204 0.195298,0.88464 0.107413,0.19803 0.335497,0.52589 0.506853,0.72857 0.171356,0.20269 0.511923,0.60458 0.756816,0.8931 1.203406,1.41777 1.515187,2.64288 1.101693,4.32897 -0.107364,0.43779 -0.51039,1.5128 -0.622784,1.66116 -0.04241,0.056 -0.230627,0.12279 -0.45158,0.16028 -0.386948,0.0656 -2.522011,0.12332 -2.94345,0.0795 z m 5.104328,-0.96808 c 0.658084,-1.06218 1.963292,-2.7329 4.221454,-5.40365 0.737318,-0.87203 1.462568,-1.76543 1.611665,-1.98533 0.902142,-1.33055 0.653304,-2.34966 -0.751288,-3.07685 -0.877703,-0.45441 -1.778123,-0.71725 -4.630988,-1.35182 -2.275456,-0.50613 -3.004615,-0.69283 -4.00607,-1.02572 -2.316177,-0.76991 -3.550404,-1.79278 -3.803155,-3.15189 -0.153004,-0.82274 0.293586,-1.80618 1.1879,-2.61589 1.376445,-1.24622 3.188707,-2.199177 8.084255,-4.250981 l 1.480919,-0.620678 0.267665,0.187976 c 0.866952,0.608842 1.971063,1.624151 2.658353,2.444542 0.599594,0.715721 1.242619,1.716341 1.69099,2.631371 2.98984,6.10164 0.952111,13.41588 -4.767836,17.1137 -0.901162,0.58258 -2.60224,1.36182 -3.380866,1.54872 -0.160871,0.0386 -0.16004,0.0359 0.137002,-0.4435 z m 2.968302,-13.27618 c 0,-0.0957 -0.229665,-0.29592 -0.440383,-0.38396 -0.354811,-0.14826 -0.879532,-0.0733 -0.807166,0.11526 0.02654,0.0692 0.274889,0.20024 0.548115,0.28929 0.164334,0.0536 0.699434,0.0378 0.699434,-0.0206 z m -1.821442,-1.00321 c 0.351715,-0.29065 -0.488838,-0.87917 -1.267114,-0.88718 -0.347399,-0.003 -0.381004,0.007 -0.397625,0.12365 -0.03342,0.23482 0.555127,0.72461 1.00902,0.83973 0.202724,0.0514 0.550148,0.0111 0.655719,-0.0762 z m -2.57647,-0.65531 c 0.111622,-0.0466 0.218523,-0.12538 0.237558,-0.17499 0.16117,-0.42 -0.787367,-1.17697 -1.762292,-1.40637 -0.701848,-0.16515 -1.70399,-0.002 -1.841451,0.29958 -0.200902,0.44093 0.885912,1.14075 2.022913,1.30258 0.564295,0.0803 1.121916,0.0717 1.343272,-0.0208 z m 14.83113,3.43578 v -8.19547 l 4.356888,0.0221 c 4.257501,0.0216 4.370093,0.025 4.935777,0.15245 1.180909,0.26592 1.966286,0.66488 2.653239,1.34781 0.490445,0.48757 0.782939,0.98159 1.00067,1.69012 0.109733,0.35709 0.134358,0.57059 0.134463,1.16573 2.21e-4,1.29198 -0.298749,2.03662 -1.162943,2.89653 l -0.53862,0.53594 0.503163,0.28006 c 0.7007,0.39002 1.37323,1.05862 1.65947,1.64979 0.116419,0.24043 0.252486,0.59452 0.302376,0.78686 0.133108,0.51317 0.174748,1.45394 0.08821,1.9927 -0.317638,1.97742 -1.634083,3.17311 -4.080263,3.70598 -0.531321,0.11574 -0.760411,0.12203 -5.204107,0.14297 l -4.648319,0.0219 z m 8.657012,4.57071 c 0.949475,-0.17551 1.426925,-0.73848 1.350249,-1.59208 -0.03777,-0.42045 -0.245054,-0.74496 -0.626501,-0.98079 -0.478611,-0.29591 -0.85173,-0.33409 -3.275288,-0.33521 l -2.200302,-0.001 v 1.4863 1.4863 h 2.204168 c 1.341058,0 2.338681,-0.0249 2.547674,-0.0635 z m -0.511762,-6.48988 c 0.351315,-0.12499 0.731827,-0.42793 0.872367,-0.69451 0.131389,-0.24923 0.135116,-0.93797 0.0064,-1.17566 -0.232844,-0.42984 -0.671663,-0.69161 -1.315455,-0.78471 -0.216487,-0.0313 -1.160808,-0.0574 -2.098483,-0.0581 l -1.704871,-0.001 v 1.43153 1.43154 l 1.967156,-0.0201 c 1.739675,-0.0178 2.002518,-0.0327 2.272926,-0.12888 z m 6.950857,1.91557 v -8.19328 l 1.267727,0.0186 c 1.252968,0.0184 1.271587,0.0206 1.600102,0.18187 0.416174,0.20437 0.817683,0.64284 0.975924,1.06579 0.118443,0.31656 0.119704,0.39809 0.119704,7.72009 v 7.40018 h -1.981726 -1.981731 z m 5.595471,0.007 v -8.19191 h 3.441177 c 3.507081,0 4.108172,0.0276 5.112807,0.23476 2.917548,0.60163 5.17833,2.5154 6.093597,5.15827 0.361524,1.0439 0.418984,1.42814 0.418134,2.79617 -5.5e-4,1.12307 -0.0136,1.27796 -0.15652,1.87827 -0.372221,1.56348 -1.038204,2.76567 -2.140916,3.86464 -1.162555,1.15861 -2.596072,1.89935 -4.415906,2.28183 -0.611764,0.12858 -0.738026,0.13283 -4.490919,0.15109 l -3.861454,0.0188 z m 7.023475,4.5134 c 1.067005,-0.11876 1.869255,-0.46828 2.56391,-1.11701 0.235465,-0.21989 0.528053,-0.55007 0.650207,-0.73373 0.283878,-0.42684 0.572551,-1.1987 0.664396,-1.77653 0.08982,-0.56504 0.04286,-1.68243 -0.09248,-2.20028 -0.418298,-1.6006 -1.635355,-2.7604 -3.245295,-3.09262 -0.451647,-0.0932 -0.792815,-0.11171 -2.070744,-0.11235 l -1.530012,-10e-4 v 4.54632 4.54632 l 1.267722,-4.4e-4 c 0.697249,-2.2e-4 1.503783,-0.0268 1.792296,-0.0589 z"
       style="fill:#ffffff;stroke-width:0.0582859;fill-opacity:1" />
  </g>
</svg>
